<?xml version="1.0" ?><!DOCTYPE svg  PUBLIC '-//W3C//DTD SVG 1.1//EN'  'http://www.w3.org/Graphics/SVG/1.1/DTD/svg11.dtd'><svg enable-background="new 0 0 155.95 155.95" height="155.95" id="Layer_1" overflow="visible" version="1.1" viewBox="0 0 155.95 155.95" width="155.95" xml:space="preserve" xmlns="http://www.w3.org/2000/svg" xmlns:xlink="http://www.w3.org/1999/xlink"><g id="icon"><path d="M77.975,155.95c43.068,0,77.976-34.914,77.976-77.979C155.95,34.911,121.043,0,77.975,0   C34.907,0,0,34.911,0,77.972C0,121.036,34.907,155.95,77.975,155.95" fill="#3BAEDA"/><path d="M117.326,86.967c0.608-2.755,0.92-5.614,0.92-8.549c0-21.994-17.823-39.825-39.821-39.825   c-2.325,0-4.596,0.201-6.811,0.582c-3.558-2.243-7.773-3.544-12.293-3.544c-12.75,0-23.091,10.341-23.091,23.098   c0,4.264,1.163,8.251,3.17,11.681c-0.526,2.589-0.803,5.268-0.803,8.009c0,21.998,17.831,39.828,39.829,39.828   c2.492,0,4.929-0.229,7.289-0.671c3.26,1.751,6.97,2.741,10.916,2.741c12.764,0,23.104-10.342,23.104-23.092   C119.734,93.542,118.862,90.054,117.326,86.967z M98.845,97.446c-1.835,2.616-4.555,4.679-8.085,6.146   c-3.496,1.454-7.684,2.188-12.445,2.188c-5.725,0-10.521-1.011-14.259-2.99c-2.679-1.439-4.887-3.405-6.562-5.821   c-1.689-2.437-2.547-4.853-2.547-7.192c0-1.46,0.561-2.727,1.661-3.765c1.094-1.025,2.492-1.544,4.153-1.544   c1.371,0,2.554,0.408,3.516,1.211c0.914,0.789,1.696,1.938,2.333,3.42c0.706,1.619,1.474,2.983,2.284,4.056   c0.782,1.039,1.903,1.911,3.343,2.589c1.439,0.679,3.392,1.024,5.787,1.024c3.288,0,5.987-0.699,8.016-2.09   c1.986-1.35,2.948-2.977,2.948-4.971c0-1.563-0.498-2.803-1.536-3.779c-1.08-1.01-2.513-1.799-4.25-2.339   c-1.813-0.561-4.264-1.177-7.31-1.813c-4.132-0.883-7.642-1.932-10.438-3.119c-2.852-1.215-5.15-2.904-6.839-5.008   c-1.703-2.143-2.575-4.825-2.575-7.984c0-3.004,0.907-5.721,2.7-8.057c1.786-2.322,4.388-4.132,7.738-5.365   c3.302-1.222,7.227-1.841,11.685-1.841c3.558,0,6.68,0.412,9.289,1.222c2.63,0.813,4.838,1.92,6.575,3.277   c1.752,1.371,3.06,2.831,3.877,4.354c0.83,1.533,1.246,3.063,1.246,4.541c0,1.426-0.554,2.717-1.634,3.845   c-1.094,1.132-2.472,1.709-4.098,1.709c-1.468,0-2.631-0.363-3.42-1.066c-0.747-0.665-1.522-1.692-2.381-3.17   c-0.997-1.883-2.201-3.375-3.571-4.42c-1.344-1.024-3.586-1.537-6.659-1.537c-2.852,0-5.178,0.571-6.895,1.707   c-1.661,1.083-2.471,2.333-2.471,3.817c0,0.907,0.256,1.665,0.796,2.315c0.567,0.695,1.371,1.298,2.374,1.803   c1.045,0.53,2.125,0.945,3.205,1.243c1.107,0.308,2.963,0.765,5.51,1.353c3.226,0.692,6.188,1.468,8.805,2.305   c2.658,0.852,4.942,1.893,6.811,3.111c1.911,1.243,3.42,2.834,4.493,4.742c1.072,1.91,1.619,4.271,1.619,7.019   C101.641,91.84,100.699,94.844,98.845,97.446z" fill="#FFFFFF"/></g></svg>