<?xml version="1.0" encoding="UTF-8" standalone="no"?>
<!-- Created with Inkscape (http://www.inkscape.org/) -->

<svg
   xmlns:dc="http://purl.org/dc/elements/1.1/"
   xmlns:cc="http://creativecommons.org/ns#"
   xmlns:rdf="http://www.w3.org/1999/02/22-rdf-syntax-ns#"
   xmlns:svg="http://www.w3.org/2000/svg"
   xmlns="http://www.w3.org/2000/svg"
   xmlns:sodipodi="http://sodipodi.sourceforge.net/DTD/sodipodi-0.dtd"
   xmlns:inkscape="http://www.inkscape.org/namespaces/inkscape"
   width="210mm"
   height="297mm"
   viewBox="0 0 210 297"
   version="1.1"
   id="svg8"
   sodipodi:docname="logo.svg"
   inkscape:version="0.92.4 (5da689c313, 2019-01-14)">
  <defs
     id="defs2" />
  <sodipodi:namedview
     id="base"
     pagecolor="#ffffff"
     bordercolor="#666666"
     borderopacity="1.0"
     inkscape:pageopacity="0.0"
     inkscape:pageshadow="2"
     inkscape:zoom="0.49497475"
     inkscape:cx="614.53789"
     inkscape:cy="708.10936"
     inkscape:document-units="mm"
     inkscape:current-layer="layer1"
     showgrid="false"
     inkscape:snap-to-guides="true"
     inkscape:snap-grids="true"
     inkscape:snap-center="true"
     inkscape:snap-object-midpoints="true"
     inkscape:window-width="1920"
     inkscape:window-height="1017"
     inkscape:window-x="-8"
     inkscape:window-y="-8"
     inkscape:window-maximized="1" />
  <metadata
     id="metadata5">
    <rdf:RDF>
      <cc:Work
         rdf:about="">
        <dc:format>image/svg+xml</dc:format>
        <dc:type
           rdf:resource="http://purl.org/dc/dcmitype/StillImage" />
      </cc:Work>
    </rdf:RDF>
  </metadata>
  <g
     inkscape:label="Layer 1"
     inkscape:groupmode="layer"
     id="layer1"
     style="display:inline">
    <text
       xml:space="preserve"
       style="font-style:normal;font-weight:normal;font-size:10.58333302px;line-height:335.8444519px;font-family:sans-serif;letter-spacing:0px;word-spacing:0px;fill:#000000;fill-opacity:1;stroke:none;stroke-width:0.26458332"
       x="66.282845"
       y="76.235367"
       id="text3715"><tspan
         sodipodi:role="line"
         id="tspan3713"
         x="66.282845"
         y="247.1985"
         style="font-style:normal;font-variant:normal;font-weight:normal;font-stretch:normal;font-size:25.39999962px;line-height:0px;font-family:'Bauhaus 93';-inkscape-font-specification:'Bauhaus 93, ';stroke-width:0.26458332" /></text>
    <circle
       id="path3717"
       cx="103.16602"
       cy="131.82742"
       r="75.370003"
       style="fill:#d45500;stroke-width:0.26458332" />
    <circle
       style="fill:#ffffff;stroke-width:0.26458332"
       id="path3721"
       cx="103.16602"
       cy="131.82742"
       r="62.006527" />
    <rect
       style="fill:#d45500;stroke-width:0.3030543"
       id="rect3735"
       width="43.483475"
       height="12"
       x="134.49466"
       y="123.67155"
       ry="0" />
    <rect
       style="fill:#d45500;stroke-width:0.19073525"
       id="rect3735-5"
       width="12"
       height="17.224781"
       x="134.49466"
       y="123.57655"
       ry="0" />
    <path
       style="fill:none;stroke:#000000;stroke-width:0.26458332px;stroke-linecap:butt;stroke-linejoin:miter;stroke-opacity:1"
       d="m 164.63803,123.67571 h 13.43029"
       id="path3760"
       inkscape:connector-curvature="0" />
    <path
       style="fill:#ffffff;stroke:#000000;stroke-width:0.26458332px;stroke-linecap:butt;stroke-linejoin:miter;stroke-opacity:1"
       d="m 147.36573,88.429541 10.02261,-8.953529"
       id="path3762"
       inkscape:connector-curvature="0" />
    <path
       style="fill:#ffffff;stroke-width:0.12626907"
       d="m 556.98992,334.11917 -0.26544,-0.28836 18.23623,-16.28871 c 10.02992,-8.95879 18.54275,-16.55941 18.91738,-16.89028 l 0.68116,-0.60157 0.2615,0.36724 0.26151,0.36725 -18.77408,16.77558 c -10.32575,9.22656 -18.8368,16.79169 -18.91345,16.81139 -0.0766,0.0197 -0.25881,-0.0939 -0.40481,-0.25254 z"
       id="path3764"
       inkscape:connector-curvature="0"
       transform="scale(0.26458333)" />
    <path
       style="fill:#ffffff;stroke-width:0.12626907"
       d="m 622.3582,467.42349 v -0.44194 h 25.31695 25.31694 v 0.44194 0.44194 H 647.67515 622.3582 Z"
       id="path3766"
       inkscape:connector-curvature="0"
       transform="scale(0.26458333)" />
    <path
       style="fill:#ffffff;stroke-width:0.12626907"
       d="m 622.17401,466.4449 c -0.0381,-0.2257 -0.24246,-1.5752 -0.45404,-2.99889 -5.3698,-36.13372 -19.52263,-71.22278 -40.72948,-100.9804 -0.87978,-1.23451 -1.74033,-2.42923 -1.91235,-2.65494 l -0.31274,-0.41037 h 29.91557 29.91556 l 1.56755,2.87262 c 2.99498,5.48851 6.72274,13.00969 9.46573,19.0982 11.59268,25.73181 19.41455,53.56618 22.85136,81.31728 0.21072,1.70147 0.41536,3.33508 0.45476,3.63023 l 0.0716,0.53665 h -25.3821 -25.3821 z"
       id="path3768"
       inkscape:connector-curvature="0"
       transform="scale(0.26458333)" />
    <path
       style="fill:#ffffff;stroke-width:0.12626907"
       d="m 576.82339,356.78022 c -5.45734,-7.19775 -11.84413,-14.69345 -17.58086,-20.63337 l -1.66559,-1.72458 18.78514,-16.79979 18.78513,-16.79979 1.25353,1.28864 c 1.8298,1.88104 5.11979,5.47725 7.65088,8.36298 9.87894,11.26312 19.23185,23.83023 27.25005,36.61476 2.18194,3.47896 7.21897,12.02263 7.21897,12.24462 0,0.0366 -13.43491,0.0666 -29.85535,0.0666 h -29.85535 z"
       id="path3770"
       inkscape:connector-curvature="0"
       transform="scale(0.26458333)" />
  </g>
</svg>
